<svg width="203" height="201" viewBox="0 0 203 201" fill="none" xmlns="http://www.w3.org/2000/svg">
<path d="M101.531 200.199C156.759 200.199 201.531 155.427 201.531 100.199C201.531 44.9708 156.759 0.199219 101.531 0.199219C46.3027 0.199219 1.53125 44.9708 1.53125 100.199C1.53125 155.427 46.3027 200.199 101.531 200.199Z" fill="#0D0D0D" stroke="#6B40E2" stroke-width="0.4" stroke-miterlimit="10"/>
<path d="M101.531 179C145.161 179 180.531 143.63 180.531 100C180.531 56.3695 145.161 21 101.531 21C57.9007 21 22.5312 56.3695 22.5312 100C22.5312 143.63 57.9007 179 101.531 179Z" fill="#0D0D0D" stroke="#6B40E2" stroke-width="0.4" stroke-miterlimit="10"/>
<path d="M186.171 138.531C186.221 140.24 185.608 141.903 184.461 143.171C183.854 143.808 183.123 144.314 182.313 144.658C181.503 145.002 180.631 145.177 179.751 145.171H37.7515C36.8561 145.171 35.9694 144.994 35.1423 144.651C34.3152 144.308 33.564 143.805 32.9315 143.171C31.7273 141.936 31.016 140.304 30.9315 138.581C30.8818 137.418 31.159 136.264 31.7315 135.251L98.5715 11.9006C99.1156 10.8845 99.9285 10.0375 100.921 9.45197C101.914 8.86648 103.049 8.56507 104.201 8.58065C105.375 8.57969 106.53 8.88322 107.552 9.4616C108.573 10.04 109.428 10.8735 110.031 11.8806L170.891 111.801L185.161 135.201C185.501 135.763 185.764 136.368 185.941 137.001C186.074 137.501 186.151 138.014 186.171 138.531Z" fill="#FFDB7D" stroke="#020203" stroke-width="0.4" stroke-linecap="round" stroke-linejoin="round"/>
<g style="mix-blend-mode:screen">
<g style="mix-blend-mode:screen">
<path d="M157.851 90.371L103.031 145.201H37.7616C36.2696 145.192 34.8219 144.693 33.6416 143.781L131.031 46.3809L157.851 90.371Z" fill="white"/>
</g>
</g>
<path d="M37.7612 145.2C36.867 145.201 35.9815 145.025 35.1558 144.682C34.3302 144.339 33.5808 143.835 32.9512 143.2C31.7392 141.966 31.0267 140.328 30.9512 138.6C30.9056 137.443 31.1752 136.296 31.7312 135.28L98.5713 11.9302C99.1123 10.9108 99.9243 10.0605 100.917 9.47295C101.911 8.88539 103.047 8.58341 104.201 8.60028C105.374 8.59909 106.527 8.9026 107.547 9.4811C108.567 10.0596 109.42 10.8932 110.021 11.9002L185.171 135.2C185.78 136.197 186.124 137.333 186.171 138.5C186.223 140.208 185.606 141.87 184.451 143.13C183.848 143.77 183.12 144.278 182.311 144.622C181.502 144.967 180.63 145.14 179.751 145.13H37.7512L37.7612 145.2Z" stroke="#020203" stroke-width="0.4" stroke-linecap="round" stroke-linejoin="round"/>
<path d="M183.661 143.869L171.821 154.809C170.594 155.927 168.991 156.542 167.331 156.529H25.7812C24.8514 156.532 23.9305 156.349 23.072 155.992C22.2135 155.635 21.4348 155.11 20.7812 154.449L32.9412 143.199C33.5717 143.836 34.3226 144.34 35.1502 144.684C35.9777 145.027 36.8653 145.202 37.7612 145.199H179.761C181.171 145.192 182.54 144.725 183.661 143.869Z" fill="#FFCB45" stroke="#020203" stroke-width="0.4" stroke-linecap="round" stroke-linejoin="round"/>
<path d="M31.7415 135.259C31.1725 136.274 30.8956 137.426 30.9415 138.589C31.0323 140.31 31.7427 141.941 32.9415 143.179L20.8015 154.449C19.5414 153.166 18.7975 151.465 18.7115 149.669C18.6678 148.48 18.9477 147.301 19.5215 146.259L86.1515 23.2593C86.493 22.6253 86.9354 22.0511 87.4615 21.5594L99.6015 10.3594C98.9215 11.3594 98.2815 12.4294 97.7015 13.5194L31.7415 135.259Z" fill="#FFCB45" stroke="#020203" stroke-width="0.4" stroke-linecap="round" stroke-linejoin="round"/>
<path d="M114.271 103.639L112.661 55.7192L112.571 55.5291L112.381 55.4492H99.1416L98.9616 55.5291L98.8916 55.7192L100.502 103.639L100.581 103.829L100.771 103.909H114.011L114.191 103.829L114.271 103.639Z" fill="#0D0D0D" stroke="#0D0D0D" stroke-width="0.4" stroke-linecap="round" stroke-linejoin="round"/>
<path d="M114.872 122.13L114.392 107.99L114.322 107.83L114.142 107.76H100.902L100.742 107.83L100.682 107.99L101.152 122.13L101.232 122.3L101.392 122.37H114.632L114.802 122.3L114.872 122.13Z" fill="#0D0D0D" stroke="#0D0D0D" stroke-width="0.4" stroke-linecap="round" stroke-linejoin="round"/>
<path d="M161.157 56.074C161.078 54.0701 160.246 52.1697 158.828 50.7516C157.41 49.3335 155.509 48.5021 153.506 48.4229L143.531 48.0049L153.554 47.616C155.549 47.5447 157.444 46.7249 158.862 45.3197C160.279 43.9145 161.116 42.0271 161.205 40.0329L161.662 30L161.973 39.9163C162.036 41.9312 162.86 43.8473 164.28 45.2782C165.7 46.709 167.61 47.5479 169.624 47.6257L179.531 48.0049L169.566 48.384C167.561 48.4609 165.66 49.2917 164.241 50.7102C162.823 52.1288 161.992 54.0305 161.915 56.0351L161.536 66L161.157 56.074Z" fill="white"/>
<path d="M83.7414 182.122C83.6896 180.73 83.1154 179.409 82.1336 178.424C81.1517 177.438 79.8345 176.86 78.4457 176.805L71.5312 176.545L78.5257 176.275C79.9062 176.221 81.2165 175.65 82.1971 174.675C83.1778 173.7 83.7573 172.391 83.8214 171.008L84.1412 164L84.351 170.888C84.3956 172.287 84.968 173.617 85.9527 174.609C86.9375 175.601 88.2612 176.182 89.6568 176.235L96.5312 176.505L89.6168 176.765C88.2278 176.822 86.9108 177.4 85.9277 178.385C84.9447 179.37 84.3676 180.69 84.3111 182.082L84.0512 189L83.7414 182.122Z" fill="white"/>
<path d="M22.5791 58.3984L28.0126 69.2792L39.3953 70.3813L33.9618 59.5005L22.5791 58.3984Z" fill="#3CBF77" stroke="#0D0D0D" stroke-width="0.4" stroke-linecap="round" stroke-linejoin="round"/>
<path d="M28.5276 48.6289L39.9104 49.731L33.9618 59.4997L22.5791 58.3976L28.5276 48.6289Z" fill="white" stroke="#0D0D0D" stroke-width="0.4" stroke-linecap="round" stroke-linejoin="round"/>
<path d="M39.3954 70.38L45.3446 60.6013L39.9105 49.7305L33.9619 59.4992L39.3954 70.38Z" fill="#4FE3A3" stroke="#0D0D0D" stroke-width="0.4" stroke-linecap="round" stroke-linejoin="round"/>
<path d="M185.941 137.031C185.263 137.244 184.571 137.412 183.871 137.531C183.045 137.672 182.208 137.742 181.371 137.741C178.363 137.744 175.422 136.848 172.928 135.168C170.433 133.487 168.498 131.099 167.371 128.31C166.244 125.521 165.977 122.459 166.605 119.517C167.232 116.575 168.724 113.888 170.891 111.801L185.161 135.201C185.503 135.772 185.766 136.388 185.941 137.031Z" fill="#0D0D0D" stroke="#0D0D0D" stroke-width="0.4" stroke-linecap="round" stroke-linejoin="round"/>
<path d="M167.721 116.601C167.721 121.084 169.501 125.384 172.67 128.555C175.839 131.726 180.138 133.508 184.621 133.511C185.563 133.513 186.503 133.432 187.431 133.271C190.962 132.677 194.214 130.977 196.718 128.416C199.221 125.855 200.847 122.565 201.361 119.021C201.431 118.511 201.481 118.021 201.511 117.461C201.511 117.171 201.511 116.881 201.511 116.601C201.516 112.861 200.28 109.224 197.997 106.262C195.714 103.299 192.512 101.178 188.894 100.23C185.276 99.2815 181.446 99.5606 178.003 101.023C174.56 102.486 171.7 105.049 169.871 108.311C168.446 110.841 167.705 113.698 167.721 116.601Z" fill="#3CBF77" stroke="#0D0D0D" stroke-width="0.4" stroke-linecap="round" stroke-linejoin="round"/>
<path d="M169.711 110.721C169.708 114.461 170.945 118.096 173.229 121.058C175.512 124.02 178.713 126.142 182.331 127.09C185.949 128.039 189.779 127.762 193.222 126.302C196.666 124.842 199.528 122.281 201.361 119.021C201.473 118.219 201.53 117.411 201.531 116.601C201.536 112.861 200.3 109.224 198.017 106.262C195.734 103.299 192.532 101.178 188.914 100.23C185.296 99.2815 181.466 99.5606 178.023 101.023C174.58 102.486 171.72 105.049 169.891 108.311C169.77 109.109 169.709 109.914 169.711 110.721Z" fill="#4FE2A3" stroke="#0D0D0D" stroke-width="0.4" stroke-linecap="round" stroke-linejoin="round"/>
<path d="M193.841 107.699C194.453 106.431 193.035 104.478 190.673 103.336C188.311 102.195 185.9 102.298 185.287 103.566C184.674 104.834 186.092 106.787 188.454 107.928C190.816 109.07 193.228 108.967 193.841 107.699Z" fill="white" stroke="#0D0D0D" stroke-width="0.4" stroke-linecap="round" stroke-linejoin="round"/>
</svg>
